<?xml version="1.0" standalone="no"?>
<!DOCTYPE svg PUBLIC "-//W3C//DTD SVG 20010904//EN"
 "http://www.w3.org/TR/2001/REC-SVG-20010904/DTD/svg10.dtd">
<svg version="1.0" xmlns="http://www.w3.org/2000/svg"
 width="243.000000pt" height="208.000000pt" viewBox="0 0 243.000000 208.000000"
 preserveAspectRatio="xMidYMid meet">

<g transform="translate(0.000000,208.000000) scale(0.100000,-0.100000)"
fill="#000000" stroke="none">
<path d="M1436 1780 c95 -380 28 -640 -189 -728 -76 -31 14 -44 118 -17 70 19
225 90 288 134 40 27 78 84 64 97 -3 3 -18 -3 -34 -14 -28 -20 -73 -38 -73
-29 0 3 16 14 36 26 23 14 42 37 55 66 18 40 19 52 9 98 -6 29 -17 63 -25 77
l-13 25 -8 -30 c-6 -28 -51 -125 -57 -125 -2 0 -3 60 -2 133 0 127 -1 134 -29
184 -16 29 -59 85 -97 125 l-67 73 24 -95z"/>
<path d="M1930 1608 c0 -315 -182 -521 -539 -608 -106 -25 -221 -26 -342 -1
-110 23 -115 24 -197 63 -71 34 -110 33 -156 -3 -21 -16 -24 -24 -16 -34 16
-19 84 -42 145 -50 28 -4 58 -14 67 -22 9 -8 29 -51 43 -94 53 -160 112 -202
407 -299 136 -44 164 -57 205 -94 101 -91 219 -188 243 -201 14 -7 41 -16 60
-20 l35 -7 -35 37 -35 37 60 -27 c33 -15 66 -29 73 -32 6 -3 29 -2 49 2 l36 7
-93 50 c-174 93 -321 202 -375 277 -32 44 -40 49 -93 60 -71 14 -158 54 -195
89 -41 39 -33 44 27 16 116 -53 307 -55 468 -5 l66 21 -54 52 c-30 28 -53 53
-51 54 2 2 27 -5 55 -16 80 -31 117 -27 160 16 l36 36 -60 20 c-82 27 -85 35
-20 43 104 13 156 72 156 175 -1 42 -3 51 -11 38 -16 -28 -90 -66 -139 -73
l-45 -6 25 18 c46 32 115 108 135 148 24 51 30 136 15 208 -13 64 -60 165 -90
192 -20 18 -20 17 -20 -67z"/>
<path d="M778 1289 c-54 -19 -118 -73 -118 -100 0 -20 32 -21 54 0 28 26 41
26 89 1 20 -11 52 -20 71 -20 27 0 47 -11 91 -49 38 -33 71 -52 103 -60 26 -7
55 -14 66 -17 16 -5 16 -3 -4 24 -26 35 -54 163 -38 173 5 3 -11 11 -36 18
-48 12 -54 19 -34 39 22 22 -177 14 -244 -9z"/>
<path d="M610 1168 c-28 -29 -51 -40 -120 -58 -47 -13 -121 -37 -165 -54 l-80
-31 40 -4 c32 -2 36 -5 20 -11 l-20 -9 20 0 c11 0 94 10 185 24 174 26 200 37
180 76 -13 24 2 32 43 23 30 -6 31 -6 17 12 -14 18 -14 18 3 5 21 -17 67 -1
67 24 0 22 -47 31 -68 12 -38 -33 -76 -30 -83 8 -4 17 -8 15 -39 -17z m160 2
c0 -5 -4 -10 -10 -10 -5 0 -10 5 -10 10 0 6 5 10 10 10 6 0 10 -4 10 -10z"/>
<path d="M800 1110 c0 -5 5 -10 10 -10 6 0 10 5 10 10 0 6 -4 10 -10 10 -5 0
-10 -4 -10 -10z"/>
<path d="M826 913 c10 -28 12 -66 7 -139 -5 -92 -4 -106 16 -148 25 -51 70
-90 148 -130 53 -26 88 -36 44 -12 -24 13 -30 34 -32 114 -1 41 5 49 28 32 10
-7 -2 5 -27 27 -49 44 -88 114 -115 205 -18 63 -36 88 -65 88 -16 0 -17 -3 -4
-37z"/>
</g>
</svg>
